<?xml version="1.0" encoding="utf-8" ?><svg xmlns="http://www.w3.org/2000/svg" xmlns:xlink="http://www.w3.org/1999/xlink" width="224" height="224" viewBox="0 0 224 224"><path fill="white" d="M0 0L224 0L224 224L0 224L0 0Z"/><path fill="#D3000E" d="M117.887 16.797C146.556 16.2738 176.186 16.8627 204.987 16.7348C200.003 21.3774 194.092 27.7545 189.167 32.7504L156.208 66.2061L53.9396 169.825L10.9129 213.426C10.3419 187.84 11.1275 162.034 10.7728 136.427C10.7213 132.707 10.7081 128.842 10.8466 125.129C11.9957 123.089 20.0954 115.205 22.0932 113.182L46.0812 88.9265L94.6032 39.744C101.507 32.7686 108.396 25.7311 115.315 18.769C116.124 17.9549 116.889 17.368 117.887 16.797Z"/><path fill="#757474" d="M121.97 113.2C122.503 113.302 210 202.57 218.248 210.466L174.375 210.399L130.442 210.405C126.916 206.523 122.079 201.917 118.293 198.085L92.2901 171.725C87.6689 167.034 82.5575 162.093 78.1398 157.273L108.09 127.055L116.429 118.534C118.03 116.897 120.196 114.533 121.97 113.2Z"/><path fill="#757474" d="M10.9704 16.6861C30.9348 17.0866 52.0004 16.7399 72.0572 16.7735C71.8464 26.9514 72.0626 37.8209 72.0268 48.077C69.6371 51.0546 64.2073 56.2537 61.3762 59.1153L41.169 79.4903C31.1935 89.791 20.8546 99.8433 10.9635 110.205L10.9016 47.2257C10.9032 37.4643 10.6174 26.339 10.9704 16.6861Z"/></svg>