<?xml version="1.0" encoding="utf-8" ?><svg xmlns="http://www.w3.org/2000/svg" xmlns:xlink="http://www.w3.org/1999/xlink" width="848" height="271" viewBox="0 0 848 271"><path fill="white" d="M0 0L848 0L848 271L0 271L0 0Z"/><path fill="#D3000E" d="M139.516 53.8683C149.489 53.5415 160.546 53.7742 170.582 53.7763L226.751 53.7825C209.705 72.1869 189.064 92.2217 171.205 110.277L76.035 206.729C61.5925 221.195 47.3796 236.025 32.8765 250.393C32.5705 227.701 32.9001 204.949 32.7587 182.251C32.7163 175.448 32.6903 168.571 32.8809 161.775C36.1781 157.731 45.2709 148.953 49.3235 144.855L80.8853 112.902L118.511 74.7816C124.58 68.6291 133.368 59.1589 139.516 53.8683Z"/><path fill="#757474" d="M143.664 150.246C145.455 150.929 231.118 238.358 240.049 247.474C225.924 247.168 211.067 247.384 196.887 247.382L152.494 247.353C135.227 230.089 116.964 211.963 100.133 194.282C114.678 179.952 129.348 164.836 143.664 150.246Z"/><path fill="#757474" d="M558.092 85.5276C583.172 82.9709 605.37 99.5758 607.961 125.057C609.161 136.83 605.653 148.601 598.203 157.792C590.725 166.969 579.708 172.487 568.017 173.675C567.788 173.709 567.558 173.74 567.328 173.766C557.696 174.865 537.81 171.825 532.431 162.03C530.315 158.177 528.17 151.93 526.401 147.637C523.464 140.507 519.305 132.999 517.574 125.524C516.603 118.434 522.08 107.286 526.699 101.841C535.132 91.9022 545.279 86.8148 558.092 85.5276Z"/><path fill="white" d="M558.8 103.343C573.353 101.26 586.83 111.4 588.872 125.97C590.914 140.539 580.745 153.999 566.181 156.003C551.673 157.999 538.286 147.87 536.252 133.356C534.218 118.843 544.303 105.419 558.8 103.343Z"/><path fill="#757474" d="M377.091 86.645C390.869 86.7604 420.722 84.791 432.611 89.7653C438.938 92.4126 443.871 96.9283 446.473 103.341C449.406 110.568 449.484 119.999 446.419 127.191C443.343 134.41 437.471 138.987 430.332 141.831C436.631 152.033 444.561 162.256 451.079 172.545C448.183 172.612 445.068 172.561 442.154 172.566L429.216 172.579C423.01 163.582 416.86 154.179 410.773 145.078L395.876 145.066C395.808 154.279 395.786 163.493 395.811 172.706C394.118 172.68 392.133 172.522 390.417 172.427C386.62 162.251 381.063 151.707 377.703 141.55C376.692 138.496 377.029 124.871 377.033 120.864L377.091 86.645Z"/><path fill="white" d="M395.838 103.705C404.413 103.647 419.582 102.055 426.03 107.255C431.446 111.623 430.15 120.091 425.926 124.984C418.994 130.082 404.985 128.499 395.818 128.472L395.838 103.705Z"/><path fill="#757474" d="M645.599 85.5246C658.768 83.7557 673.872 88.1125 683.679 97.0963L671.966 111.21C667.371 107.881 664.196 105.609 658.634 103.891C644.073 99.3958 629.951 106.917 625.793 121.64C623.687 129.095 624.548 137.503 628.387 144.332C631.584 150.046 636.958 154.22 643.283 155.901C652.01 158.309 660.762 156.427 668.493 152.019C668.66 147.773 668.582 143.722 668.511 139.475L649.478 139.386L649.537 123.185L656.91 123.181L686.846 123.155L686.823 160.507C663.024 180.399 624.654 179.762 609.177 149.802C614.235 135.757 614.771 124.042 609.373 109.969C616.264 95.7825 630.086 87.0134 645.599 85.5246Z"/><path fill="#757474" d="M32.914 53.7313L94.0331 53.8033L94.0362 85.0725C91.183 88.5328 86.381 93.0975 83.0966 96.4074L63.756 115.875L33.0315 147.095C32.371 117.361 32.5342 83.5529 32.914 53.7313Z"/><path fill="#757474" d="M477.496 86.1752C483.371 86.1161 489.246 86.1252 495.121 86.2027C495.849 88.5711 498.037 93.3673 499.083 95.8271L506.8 113.966L531.747 172.496C525.133 172.604 518.517 172.601 511.903 172.487C509.737 166.737 507.101 159.804 504.455 154.205C504.064 153.379 503.712 153.509 502.775 153.326L467.813 153.316C465.402 159.336 462.258 167.587 459.371 173.216C455.441 167.601 451.559 161.953 447.724 156.273L477.496 86.1752Z"/><path fill="white" d="M485.833 109.263C486.979 110.184 496.282 133.688 497.38 136.731L486.73 136.705L474.646 136.735C477.924 127.8 482.163 118.119 485.833 109.263Z"/><path fill="#757474" d="M330.117 86.138C336.022 86.1047 341.928 86.1245 347.833 86.1973C348.915 90.0831 356.818 107.607 358.785 112.252L384.419 172.435C378.449 172.722 370.632 172.641 364.639 172.538C362.638 166.676 359.709 160.474 357.451 154.669C357.047 153.63 357.144 153.725 356.151 153.322L320.408 153.325C319.131 157.565 314.45 168.234 312.565 172.731C309.563 168.018 303.908 160.829 300.426 156.047C310.318 133.395 320.918 109.013 330.117 86.138Z"/><path fill="white" d="M338.504 109.246C339.775 110.276 348.898 133.574 350.156 136.734L339.324 136.709L327.379 136.755C329.634 129.615 335.477 116.574 338.504 109.246Z"/><path fill="#757474" d="M227.296 86.6759L245.983 86.6469C246.121 98.7725 245.625 112.29 246.221 124.259C257.419 111.728 269.539 99.053 280.999 86.689L303.687 86.6907C292.369 98.8885 280.291 111.125 268.769 123.213L290.942 153.106C294.747 158.831 301.094 166.811 305.346 172.533C297.762 172.611 290.177 172.599 282.593 172.496C273.985 160.618 264.421 148.087 256.243 136.049C253.617 138.42 248.218 143.796 246.113 146.521C245.705 154.409 246.004 164.567 246.021 172.622C239.769 172.561 233.517 172.575 227.265 172.664C226.891 144.477 227.159 114.895 227.296 86.6759Z"/><path fill="#757474" d="M743.087 86.6692L761.906 86.6343L761.895 118.918C761.848 134.032 758.909 156.354 780.309 156.54C802.287 156.731 799.157 134.227 799.126 119.032L799.144 86.6402L817.871 86.6505C817.951 92.053 817.887 97.6575 817.892 103.075L817.919 124.803C817.923 138.513 818.645 153.117 808.317 163.745C795.189 177.254 766.393 177.372 753.005 164.324C741.059 152.681 743.093 132.773 743.117 117.576L743.087 86.6692Z"/><path fill="#757474" d="M693.575 86.6681L712.499 86.6717C712.247 94.9168 712.456 104.25 712.453 112.564C712.403 126.865 712.43 141.167 712.536 155.468L741.097 155.479C743.443 160.765 745.832 164.683 750.023 168.718C751.013 169.671 753.912 171.732 754.073 172.695C746.692 172.292 737.57 172.517 730.039 172.519C717.876 172.478 705.713 172.52 693.55 172.646L693.575 86.6681Z"/><path fill="#757474" d="M503.663 209.293C514.31 207.943 524.045 215.464 525.433 226.114C526.822 236.765 519.342 246.534 508.704 247.962C498.012 249.397 488.189 241.865 486.793 231.159C485.398 220.454 492.96 210.651 503.663 209.293Z"/><path fill="white" d="M503.083 215.958C510.118 214.265 517.186 218.623 518.839 225.673C520.492 232.722 516.098 239.772 509.044 241.387C502.046 242.989 495.068 238.634 493.428 231.639C491.788 224.644 496.102 217.637 503.083 215.958Z"/><path fill="#757474" d="M329.298 209.278C339.852 208.076 349.421 215.559 350.808 226.098C352.194 236.637 344.886 246.344 334.381 247.917C327.419 248.959 320.438 246.161 316.12 240.597C311.802 235.034 310.82 227.571 313.552 221.079C316.284 214.587 322.304 210.075 329.298 209.278Z"/><path fill="white" d="M328.452 215.946C335.506 214.253 342.586 218.642 344.213 225.716C345.841 232.791 341.392 239.836 334.309 241.401C327.315 242.946 320.383 238.563 318.776 231.578C317.169 224.593 321.487 217.617 328.452 215.946Z"/><path fill="#757474" d="M595.256 209.311C599.415 209.115 603.935 210.408 605.869 214.446C606.881 216.581 607.004 219.031 606.212 221.257C604.816 225.184 602.059 226.654 598.563 228.316C600.371 229.864 603.356 233.057 605.13 234.859C606.48 232.542 607.772 230.008 609.036 227.63C610.763 228.438 612.497 229.373 614.191 230.259C612.419 233.13 610.783 235.83 608.8 238.564L614.853 244.659L611.69 246.908C610.942 247.425 610.786 247.443 609.924 247.602C608.305 246.942 606.289 244.394 605.008 243.001C602.939 244.843 601.41 245.817 598.841 246.822C588.29 250.952 576.134 242.05 583.532 231.076C584.88 229.075 586.996 227.905 589.028 226.606C584.213 218.636 585.389 211.587 595.256 209.311Z"/><path fill="white" d="M592.295 230.705C593.77 231.104 599.677 237.378 600.776 238.952L600.658 239.595C599.569 240.85 597.954 241.454 596.436 242.176C587.908 243.639 584.595 236.323 592.295 230.705Z"/><path fill="white" d="M595.041 214.566C595.521 214.542 596.002 214.542 596.482 214.566C602.735 214.841 601.897 220.099 597.767 223.537L595.99 224.333C591.688 223.796 591.061 217.488 595.041 214.566Z"/><path fill="#757474" d="M646.307 209.882L652.473 210.059C658.047 217.926 666.356 228.088 672.418 235.935C672.564 227.414 672.453 218.574 672.462 210.027L678.825 210.028C678.676 219.601 679.528 238.825 678.582 247.429L673.453 247.366C666.689 238.892 659.049 229.208 652.682 220.459C652.507 229.277 652.636 238.529 652.597 247.391L646.333 247.353L646.307 209.882Z"/><path fill="#757474" d="M531.103 209.87C532.496 210.037 535.651 210.007 537.178 210.037C543.606 218.72 550.664 227.27 557.181 236.023C557.347 227.475 557.239 218.614 557.245 210.042L563.605 209.96L563.595 234.426C563.604 237.8 563.803 244.168 563.443 247.346L558.125 247.375C551.946 238.896 544.055 228.982 537.445 220.803L537.439 247.365L531.167 247.382L531.103 209.87Z"/><path fill="#757474" d="M768.94 209.586C770.407 209.763 773.171 209.601 774.756 209.55C780.382 221.982 785.849 234.87 791.339 247.39L784.387 247.342L780.592 238.348L774.918 238.298L762.667 238.295C762.077 240.364 759.993 245.144 759.092 247.351L752.397 247.363C756.915 236.331 763.819 220.233 768.94 209.586Z"/><path fill="white" d="M771.496 217.814C772.671 218.824 777.151 230.275 778.066 232.558L771.749 232.493L765.306 232.489C767.186 227.687 769.459 222.589 771.496 217.814Z"/><path fill="#757474" d="M729.931 209.65L735.911 209.548C740.926 220.969 748.058 236.091 752.223 247.459L745.355 247.326C744.41 244.446 742.987 241.575 741.941 238.365L735.996 238.293L723.824 238.304C722.966 240.959 721.321 244.678 720.216 247.358L713.587 247.346C718.025 235.667 724.841 221.439 729.931 209.65Z"/><path fill="white" d="M732.622 218.164C734.358 219.651 738.065 229.761 739.14 232.572L733.512 232.504L726.572 232.524C728.194 227.899 730.618 222.703 732.622 218.164Z"/><path fill="#757474" d="M400.275 209.599L406.177 209.655C411.042 221.737 417.355 235.283 422.656 247.368L415.741 247.391C414.4 244.322 413.112 241.475 412.053 238.288L405.349 238.3L394.086 238.269C392.915 241.301 391.709 244.319 390.468 247.323L383.774 247.369C388.512 235.566 394.883 221.142 400.275 209.599Z"/><path fill="white" d="M403.009 217.848C404.03 219.024 408.525 230.278 409.432 232.503L404.229 232.502L396.773 232.519C398.09 228.563 401.186 221.608 403.009 217.848Z"/><path fill="#757474" d="M696.254 209.404C702.524 209.194 706.372 210.787 711.359 214.218C710.193 215.543 708.811 217.505 707.726 218.959C702.762 215.591 690.752 211.817 691.671 220.891C692.22 226.308 711.202 225.272 712.077 234.059C712.995 243.274 709.181 246.002 700.872 247.883C699.921 250.317 699.029 253.804 697.334 255.515C695.811 255.932 695.906 255.623 694.225 254.828C693.051 254.371 693.106 254.584 692.392 253.724C692.687 251.821 694.713 249.524 695.938 247.76C689.971 246.441 688.014 245.43 683.207 241.921C684.787 240.373 685.732 239.034 687.051 237.253C691.495 240.422 695.253 242.646 700.999 241.898C703.069 242.137 706.857 238.698 705.819 236.654C703.063 231.059 693.409 231.804 689.118 228.234C679.782 220.465 686.027 211.196 696.254 209.404Z"/><path fill="#757474" d="M659.732 60.6974C663.814 60.5391 668.379 60.6683 672.5 60.7034C671.445 65.2203 671.104 66.8105 668.509 70.7869C660.079 80.8318 641.992 81.4218 631.959 73.4536C629.604 71.5838 625.176 64.3017 625.877 61.0983L626.814 60.7041L638.313 60.6687C642.602 69.1046 655.065 68.9415 659.732 60.6974Z"/><path fill="#757474" d="M279.996 210.024C283.684 210.016 307.646 209.624 309.488 210.32C310.082 211.577 309.798 213.507 309.714 214.959C303.544 223.278 294.657 233.088 287.927 241.578L309.892 241.572L309.816 247.386C305.78 247.345 280.857 247.826 279.297 246.766C279.194 246.472 279.115 246.178 279.098 245.865C278.827 241.071 297.214 220.935 301.489 215.822C294.492 215.664 287.022 215.784 279.987 215.772L279.996 210.024Z"/><path fill="#757474" d="M436.764 209.376C442.289 209.133 446.576 211.1 451.1 213.874C450.256 215.459 448.772 217.412 447.696 218.915C443.766 216.575 436.822 212.931 432.598 216.918C432.09 217.398 431.037 219.01 431.254 219.705C433.411 226.591 445.118 224.921 449.605 230.231C451.174 231.824 452.623 234.133 452.464 236.575C451.832 246.267 444.224 247.894 436.83 247.809C431.064 246.864 427.865 245.694 423.324 241.928L427.083 237.317C431.088 240.326 435.018 242.372 440.176 241.986C443.113 241.766 446.275 239.828 445.911 236.533C443.571 231.404 432.572 231.672 428.738 228.061C419.82 219.662 426.338 210.877 436.764 209.376Z"/><path fill="#757474" d="M389.591 23.5254C390.892 23.4169 393.302 23.2125 394.368 23.9201C394.739 26.5864 394.565 31.8611 394.56 34.8013L394.581 53.5491C393.02 53.6416 391.198 53.9002 389.765 53.3778C389.698 52.4555 389.691 52.1771 389.408 51.2788C384.761 51.497 386.66 55.9065 377.838 53.2564C377.073 52.7477 376.332 52.2036 375.617 51.6259C366.144 43.8643 375.9 23.1318 389.595 34.8848L389.591 23.5254Z"/><path fill="white" d="M381.826 35.6833C391.031 35.7458 392.546 45.9615 384.641 49.7953C375.606 49.8224 374 39.3948 381.826 35.6833Z"/><path fill="#757474" d="M424.27 23.4205L428.985 23.4493C428.949 29.5511 428.957 35.6531 429.008 41.7547C431.723 38.5223 435.198 34.9342 438.098 31.7937L446.799 31.7954L446.719 25.7525L451.738 25.7336L451.691 31.7959C454.403 31.7611 456.414 31.1893 457.986 33.7192C457.561 36.6893 453.937 36.1222 451.732 36.0664C451.698 38.5081 451.333 46.322 452.056 48.713C452.401 49.8531 456.279 48.6105 458.015 50.5314C458.121 51.5588 457.571 52.2963 457.061 53.2109C455.257 54.494 450.325 54.202 448.697 52.6759C447.241 51.3109 446.95 50.0046 446.735 48.1708C446.785 44.6256 446.908 40.5104 446.715 36.9341C446.635 35.4553 445.71 36.8833 443.98 35.7461C443.96 34.7819 443.976 33.9928 444.023 33.0293L443.497 32.7898C442.273 33.4431 436.785 39.2434 435.456 40.5907C437.759 44.3491 441.754 49.8788 444.315 53.6823L438.561 53.6216C436.413 50.5218 434.307 47.3934 432.243 44.2374C431.092 45.1757 430.016 46.3113 428.964 47.3673L428.99 53.6746L424.01 53.6846C424.03 48.5593 423.631 26.9847 424.27 23.4205Z"/><path fill="#757474" d="M337.16 31.5285C339.1 31.3661 340.88 31.2755 342.733 31.9748C345.44 33.0215 347.617 35.1086 348.778 37.7709C352.686 46.6699 344.7 58.1403 334.851 52.7758C333.879 52.2464 333.531 51.5494 332.352 51.0927L332.035 51.7424L332.048 60.4519L327.097 60.33C327.096 57.0115 326.846 32.9224 327.326 31.9565C330.58 30.8861 331.258 31.8277 332.648 34.5642C334.451 33.0913 335.113 32.629 337.16 31.5285Z"/><path fill="white" d="M336.751 35.6438C339.896 35.5844 342.303 36.2897 343.866 39.3329C344.767 41.1272 344.916 43.2069 344.279 45.111C343.467 47.5546 342.169 48.637 339.98 49.7318C331.112 50.2526 328.752 40.5776 336.751 35.6438Z"/><path fill="#757474" d="M467.586 31.5782C471.621 30.5233 475.91 31.7248 478.811 34.7224C481.711 37.72 482.774 42.0488 481.591 46.0501C480.408 50.0514 477.163 53.1049 473.099 54.0405C466.944 55.4579 460.791 51.6667 459.284 45.5276C457.777 39.3886 461.475 33.1762 467.586 31.5782Z"/><path fill="white" d="M469.258 36.0016C472.909 35.34 476.429 37.6907 477.219 41.3192C478.01 44.9477 475.787 48.551 472.192 49.4704C469.75 50.0949 467.162 49.3353 465.443 47.4897C463.725 45.6442 463.151 43.0071 463.946 40.6133C464.74 38.2195 466.778 36.451 469.258 36.0016Z"/><path fill="#757474" d="M406.407 31.5867C410.486 30.5576 414.801 31.8284 417.673 34.9044C420.545 37.9804 421.52 42.3754 420.218 46.3784C418.915 50.3814 415.542 53.3597 411.411 54.1538C405.27 55.3342 399.306 51.4122 397.951 45.3035C396.597 39.1949 400.344 33.1163 406.407 31.5867Z"/><path fill="white" d="M407.923 35.6775C416.979 35.6818 419.306 46.3363 410.393 49.887C407.135 49.8103 404.602 48.8778 403.155 45.6987C402.336 43.8993 402.305 41.8395 403.069 40.016C404.061 37.5807 405.643 36.5938 407.923 35.6775Z"/><path fill="#757474" d="M480.761 209.986L488.244 210.097L480.066 222.312L473.489 232.242C473.242 236.869 473.362 242.664 473.329 247.379L466.916 247.362C466.674 242.608 466.849 237.269 466.642 232.296C461.817 224.928 456.941 217.298 451.932 210.079L459.753 210.028C462.645 215.12 466.976 221.482 470.164 226.703C473.618 221.081 477.151 215.509 480.761 209.986Z"/><path fill="#757474" d="M787.621 210.041L817.953 210.023L817.975 215.952L805.982 215.966C806.131 222.353 806.064 229.018 806.079 235.427C806.088 239.411 806.075 243.396 806.038 247.38L799.527 247.367L799.491 215.926L787.559 215.895L787.621 210.041Z"/><path fill="#757474" d="M356.44 210.025L362.936 210.004C362.469 219.209 362.851 231.817 362.845 241.285C368.295 241.664 376.943 241.411 382.654 241.391L382.587 246.863C381.34 247.761 359.79 247.358 356.491 247.348L356.44 210.025Z"/><path fill="#757474" d="M310.984 31.5639C311.864 31.5186 312.744 31.4922 313.625 31.485C325.789 31.4377 323.148 45.2299 323.02 53.7233C321.495 53.7595 320.359 53.7188 318.849 53.6308C318.275 53.1701 318.245 52.7561 318.088 52.0525L318.031 51.7891C313.629 51.6719 313.88 57.0648 305.45 52.378C303.39 50.1512 302.934 48.119 303.524 45.1637C304.873 38.4085 315.16 41.5226 317.901 39.8095L317.931 38.9376C315.46 34.4017 310.569 36.1596 306.486 37.0624L305.041 33.1845C306.943 32.5051 309.015 32.0435 310.984 31.5639Z"/><path fill="white" d="M312.398 43.6421C312.531 43.6357 312.664 43.6311 312.797 43.6283C315.577 43.5706 318.14 43.5656 318.202 46.9062C317.231 49.1281 315.892 49.6034 313.785 50.5296C311.258 50.5985 309.526 50.1085 308.316 47.7829C308.134 44.6399 309.704 44.2548 312.398 43.6421Z"/><path fill="#757474" d="M562.299 31.6566C563.567 31.789 565.793 31.7925 567.135 31.836C567.085 39.0727 567.107 46.3097 567.203 53.5459C565.946 53.6501 563.333 54.0576 562.392 53.4647L562.198 51.6197C561.404 51.0594 557.097 54.0906 554.552 54.0898C548.851 54.0881 547.751 49.9071 547.448 44.8559C547.441 41.7965 547.267 34.9852 547.661 32.2524C548.276 31.7498 549.727 31.4976 550.373 31.746C556.035 33.9237 548.153 49.3723 556.791 49.6319C558.181 49.6699 559.527 49.1479 560.529 48.1832C562.924 45.9002 562.197 35.6946 562.299 31.6566Z"/><path fill="#757474" d="M298.524 31.5135C299.8 31.8312 302.05 31.8147 303.434 31.8556C300.665 39.45 296.596 51.3919 292.317 58.3324C290.781 60.8223 284.993 61.2395 282.783 59.0064C282.484 54.0699 287.743 57.8863 289.804 54.2032C290.007 52.5764 289.298 51.4638 288.595 49.9786L281.026 31.9002C282.731 31.809 284.677 31.8244 286.405 31.7993C288.27 37.3347 290.573 42.5759 292.448 48.3662C294.436 42.735 296.461 37.1173 298.524 31.5135Z"/><path fill="#757474" d="M500.127 31.8082C500.949 31.7962 501.791 31.7645 502.612 31.8238C503.01 31.8525 503.907 31.8562 504.255 32.0219C506.165 32.9324 503.732 45.7135 506.428 48.6177C507.153 49.3992 508.14 49.6637 509.177 49.6567C510.659 49.6467 512.24 49.2647 513.296 48.1685C515.928 45.4346 514.775 35.7225 514.711 31.8681C516.251 31.8 518.092 31.478 519.223 32.4017C520.225 33.9024 519.791 37.4272 519.753 39.469C519.814 44.0956 519.72 48.8518 519.682 53.4885C518.347 53.666 516.975 53.7055 515.628 53.7696C514.405 53.0015 514.844 50.9978 514.048 51.4989C497.452 61.9426 500.025 40.1959 500.127 31.8082Z"/><path fill="#757474" d="M533.668 31.5323C534.397 31.478 535.128 31.4468 535.86 31.439C546.228 31.4059 543.738 46.4882 543.651 53.5852C542.199 53.6912 540.211 53.6492 538.716 53.6558C538.552 47.1958 541.614 34.4914 531.765 36.1511C527.498 39.4315 528.88 48.649 528.979 53.6906L524.121 53.7011C524.086 49.6858 523.703 35.3895 524.514 32.0942C525.139 31.5882 526.438 31.7138 527.278 31.7302C530.064 31.7848 528.203 32.9157 529.562 34.3387C531.217 32.9525 531.761 32.5213 533.668 31.5323Z"/><path fill="#757474" d="M266.755 210.008L273.282 210.032L273.27 247.381L266.737 247.346L266.755 210.008Z"/><path fill="#757474" d="M632.367 209.986C634.431 210.06 636.804 210.012 638.896 210.021L638.81 247.381L632.378 247.339C631.952 235.911 632.306 221.575 632.367 209.986Z"/><path fill="#757474" d="M570.818 31.8319C575.975 31.7741 581.49 31.5741 586.647 31.9236C588.286 32.0346 589.116 32.425 589.642 33.9495C589.173 36.2775 579.08 46.9552 576.801 49.7026C580.739 49.7055 585.791 48.7954 588.869 50.1567C589.81 51.5194 589.498 51.7657 589.488 53.6403C584.38 53.7179 579.102 53.8754 573.993 53.729C572.235 53.6786 571.164 53.3466 570.331 51.7911C570.447 49.2132 580.718 38.6137 583.119 35.9209C579.182 35.8083 574.517 36.7253 571.522 35.394C570.564 34.0263 570.863 33.7056 570.818 31.8319Z"/><path fill="#757474" d="M495.852 31.4019C497.195 31.4181 497.041 31.2031 497.926 31.8763C498.953 38.1522 495.381 35.9102 491.423 39.763C489.734 44.6649 490.207 48.3761 490.277 53.5891C488.898 53.6881 486.409 53.9556 485.266 53.3494C485.288 50.341 484.687 33.2528 485.928 32.0819C487.697 31.795 488.076 31.8131 489.829 32.0095C490.509 33.1638 490.271 34.0049 490.278 35.4831L490.643 35.709C492.182 33.3512 493.36 32.5925 495.852 31.4019Z"/><path fill="#757474" d="M353.108 32.0691L358.891 31.9814C359.087 39.0384 358.927 46.7593 358.912 53.8657L353.125 53.9801C353.076 46.6765 353.07 39.3727 353.108 32.0691Z"/><path fill="#757474" d="M592.794 24.6251L597.934 24.7777C597.991 29.9957 598.912 33.486 593.661 36.2243C592.575 36.2237 592.434 36.205 591.434 35.7852L591.331 35.0683C592.388 34.0576 593.215 33.19 594.197 32.1181C594.705 29.7055 591.213 29.8814 592.794 24.6251Z"/><path fill="#757474" d="M602.973 24.6268L607.582 24.6357C607.62 30.0545 608.617 33.6019 602.99 36.1423C602.366 36.1905 601.886 36.084 601.271 35.99L600.922 35.2063C601.855 33.0733 603.537 34.5092 604.121 31.0658C603.746 30.6744 603.388 30.2677 603.047 29.8468C601.698 28.1733 601.102 26.1026 602.973 24.6268Z"/><path fill="#757474" d="M268.112 24.71L269.969 24.9013L270.369 25.4937C269.715 27.6068 267.931 26.7543 267.149 28.8355C267.359 30.5877 267.657 29.7075 269.354 31.4423L269.183 36.1715L263.756 36.1282C263.69 30.8586 262.987 27.6709 268.112 24.71Z"/><defs><linearGradient id="gradient_0" gradientUnits="userSpaceOnUse" x1="279.96704" y1="26.224066" x2="273.81116" y2="34.703854"><stop offset="0" stop-color="#6A6967"/><stop offset="1" stop-color="#7E7C7E"/></linearGradient></defs><path fill="url(#gradient_0)" d="M277.703 24.7946C278.546 24.6911 278.859 24.7523 279.672 24.8569L279.993 25.7114C279.059 27.8031 277.558 26.4005 276.552 29.2323C276.978 30.3911 277.313 30.2551 278.637 30.9351C279.184 31.9372 278.796 34.9172 278.704 36.2247L273.357 36.1912C273.346 30.7045 272.688 27.96 277.703 24.7946Z"/><path fill="#757474" d="M266.611 200.987C268.825 200.907 271.228 200.93 273.46 200.907L273.383 206.744L266.672 206.774L266.611 200.987Z"/><path fill="#757474" d="M632.285 200.952L638.945 200.892L639.07 206.76L632.318 206.811C632.226 204.991 632.283 202.803 632.285 200.952Z"/></svg>