<svg xmlns="http://www.w3.org/2000/svg" width="247" height="47" viewBox="0 0 246.67 46.29">
    <g fill="#dc2e34">
        <path d="M41.75 16.44C38.67 8 32.43-.1 20.92 0a17.8 17.8 0 0 0-2.84.72c-2 .8-4.67 2.45-4.8 5a22.62 22.62 0 0 0-12.85 15c-1 3.68-.1 8.45.92 11.23C3.92 39 8.59 43.26 15.94 45.5a23 23 0 0 0 11.92 0 21.76 21.76 0 0 0 14.59-14.59c1.44-4.45.71-10.66-.7-14.47M29.48 32.19c-.19.15-.38.31-.58.45-1.62 2.2-5.28 5-9.26 3.25a11.34 11.34 0 0 1-3.35-2.32A12 12 0 0 0 15 32.19V20.26a24.64 24.64 0 0 0 5.33 2.43c3 .77 7.87-.94 8.91-2.43h.23z"
              fill-rule="evenodd"/>
        <path d="M75 45.45h-9.65V30.14a5.94 5.94 0 0 0-1.09-3.95A4.08 4.08 0 0 0 61 25c-3.07 0-4.31 1.49-4.31 5.13v15.32h-9.81V30.14c0-4.79 1.23-8.48 3.66-10.95s6-3.72 10.74-3.72a14.8 14.8 0 0 1 10.25 3.93C74.75 22.51 75 26.11 75 30.14zm19.12.76A16 16 0 0 1 83 41.7 15 15 0 0 1 83 20a15 15 0 0 1 10.62-4.34 12.13 12.13 0 0 1 6.7 1.79V2.08h9.66v25.21c0 5.12-.16 9-2.23 12.26-2.77 4.29-7.59 6.66-13.58 6.66m.25-21.55A6.16 6.16 0 0 0 94.24 37a5.76 5.76 0 0 0 6-6.13c0-3.64-2.43-6.18-5.9-6.18m34.19 21.52a14.8 14.8 0 0 1-10.25-3.93c-3.21-3.11-3.47-6.68-3.47-10.68V16.23h9.66v15.31c0 3.6 1.28 5.13 4.3 5.13s4.37-1.48 4.37-5.13V16.23h9.79V31.6c0 4.79-1.23 8.47-3.66 10.92s-6 3.69-10.74 3.69m19.31-44.13h9.54v43.37h-9.54zm14.82 13.39h9.54v29.98h-9.54zm42.52 29.98h-9.66V30.14a6 6 0 0 0-1.08-3.95 4.11 4.11 0 0 0-3.29-1.19c-3.06 0-4.31 1.49-4.31 5.13v15.32h-9.78V30.14c0-4.79 1.23-8.48 3.66-10.95s6-3.72 10.74-3.72a14.76 14.76 0 0 1 10.24 3.93c3.22 3.11 3.48 6.71 3.48 10.74zm35.07-13.66v-.87c0-8.45-7.12-15.3-15.9-15.3s-15.89 6.85-15.89 15.3 7.12 15.29 15.89 15.29a15.82 15.82 0 0 0 15.35-11.3h-10.42a6.3 6.3 0 0 1-4.71 2.09 6.44 6.44 0 0 1-6.28-5.23zm-15.68-7.89a6.45 6.45 0 0 1 6.18 4.78h-12.36a6.45 6.45 0 0 1 6.18-4.78M172.94 7.63a5.52 5.52 0 1 1-5.52-5.52 5.52 5.52 0 0 1 5.52 5.52M243 15.57a3.65 3.65 0 1 1 0 7.29 3.65 3.65 0 1 1 0-7.29zm-.05.73a2.91 2.91 0 0 0 .05 5.81 2.79 2.79 0 0 0 2.77-2.89 2.83 2.83 0 0 0-2.8-2.92zm-.55 4.79h-.84v-3.64a10.39 10.39 0 0 1 1.39-.11 1.9 1.9 0 0 1 1.24.29.91.91 0 0 1 .38.77.94.94 0 0 1-.75.87c.35.11.53.4.64.89a3.21 3.21 0 0 0 .27.89h-.89a3 3 0 0 1-.29-.89c-.07-.38-.29-.56-.75-.56h-.4zm0-2h.4c.46 0 .84-.16.84-.54s-.24-.55-.77-.55a2.23 2.23 0 0 0-.47 0z"/>
    </g>
</svg>