<?xml version="1.0" encoding="UTF-8" standalone="no"?>
<!-- Created with Inkscape (http://www.inkscape.org/) -->

<svg
   version="1.1"
   id="svg1"
   width="1122.52"
   height="793.70135"
   viewBox="0 0 1122.52 793.70135"
   xmlns="http://www.w3.org/2000/svg"
   xmlns:svg="http://www.w3.org/2000/svg">
  <defs
     id="defs1">
    <clipPath
       clipPathUnits="userSpaceOnUse"
       id="clipPath3">
      <path
         d="M 0,595.276 H 841.89 V 0 H 0 Z"
         transform="translate(-628.20352,-364.96031)"
         id="path3" />
    </clipPath>
    <clipPath
       clipPathUnits="userSpaceOnUse"
       id="clipPath5">
      <path
         d="M 0,595.276 H 841.89 V 0 H 0 Z"
         transform="translate(-465.77331,-213.8324)"
         id="path5" />
    </clipPath>
    <clipPath
       clipPathUnits="userSpaceOnUse"
       id="clipPath7">
      <path
         d="M 0,595.276 H 841.89 V 0 H 0 Z"
         transform="translate(-298.24521,-428.44041)"
         id="path7" />
    </clipPath>
    <clipPath
       clipPathUnits="userSpaceOnUse"
       id="clipPath9">
      <path
         d="M 0,595.276 H 841.89 V 0 H 0 Z"
         transform="translate(-383.35821,-249.40991)"
         id="path9" />
    </clipPath>
    <clipPath
       clipPathUnits="userSpaceOnUse"
       id="clipPath11">
      <path
         d="M 0,595.276 H 841.89 V 0 H 0 Z"
         transform="translate(-401.94751,-238.09141)"
         id="path11" />
    </clipPath>
    <clipPath
       clipPathUnits="userSpaceOnUse"
       id="clipPath13">
      <path
         d="M 0,595.276 H 841.89 V 0 H 0 Z"
         transform="translate(-401.82241,-232.22351)"
         id="path13" />
    </clipPath>
    <clipPath
       clipPathUnits="userSpaceOnUse"
       id="clipPath15">
      <path
         d="M 0,595.276 H 841.89 V 0 H 0 Z"
         transform="translate(-402.59231,-237.12431)"
         id="path15" />
    </clipPath>
    <clipPath
       clipPathUnits="userSpaceOnUse"
       id="clipPath17">
      <path
         d="M 0,595.276 H 841.89 V 0 H 0 Z"
         transform="translate(-193.5666,-167.606)"
         id="path17" />
    </clipPath>
    <clipPath
       clipPathUnits="userSpaceOnUse"
       id="clipPath19">
      <path
         d="M 0,595.276 H 841.89 V 0 H 0 Z"
         transform="translate(-224.0902,-187.0654)"
         id="path19" />
    </clipPath>
    <clipPath
       clipPathUnits="userSpaceOnUse"
       id="clipPath21">
      <path
         d="M 0,595.276 H 841.89 V 0 H 0 Z"
         transform="translate(-252.65851,-181.5551)"
         id="path21" />
    </clipPath>
    <clipPath
       clipPathUnits="userSpaceOnUse"
       id="clipPath23">
      <path
         d="M 0,595.276 H 841.89 V 0 H 0 Z"
         transform="translate(-277.99441,-167.606)"
         id="path23" />
    </clipPath>
    <clipPath
       clipPathUnits="userSpaceOnUse"
       id="clipPath25">
      <path
         d="M 0,595.276 H 841.89 V 0 H 0 Z"
         transform="translate(-316.93561,-167.606)"
         id="path25" />
    </clipPath>
    <clipPath
       clipPathUnits="userSpaceOnUse"
       id="clipPath27">
      <path
         d="M 0,595.276 H 841.89 V 0 H 0 Z"
         transform="translate(-380.04461,-166.621)"
         id="path27" />
    </clipPath>
    <clipPath
       clipPathUnits="userSpaceOnUse"
       id="clipPath29">
      <path
         d="M 0,595.276 H 841.89 V 0 H 0 Z"
         transform="translate(-415.34681,-167.60611)"
         id="path29" />
    </clipPath>
    <clipPath
       clipPathUnits="userSpaceOnUse"
       id="clipPath31">
      <path
         d="M 0,595.276 H 841.89 V 0 H 0 Z"
         transform="translate(-447.13961,-187.0655)"
         id="path31" />
    </clipPath>
    <clipPath
       clipPathUnits="userSpaceOnUse"
       id="clipPath33">
      <path
         d="M 0,595.276 H 841.89 V 0 H 0 Z"
         transform="translate(-481.91291,-181.5209)"
         id="path33" />
    </clipPath>
    <clipPath
       clipPathUnits="userSpaceOnUse"
       id="clipPath35">
      <path
         d="M 0,595.276 H 841.89 V 0 H 0 Z"
         transform="translate(-511.26592,-187.06561)"
         id="path35" />
    </clipPath>
    <clipPath
       clipPathUnits="userSpaceOnUse"
       id="clipPath37">
      <path
         d="M 0,595.276 H 841.89 V 0 H 0 Z"
         transform="translate(-536.08121,-167.6062)"
         id="path37" />
    </clipPath>
    <clipPath
       clipPathUnits="userSpaceOnUse"
       id="clipPath39">
      <path
         d="M 0,595.276 H 841.89 V 0 H 0 Z"
         transform="translate(-560.78491,-167.6062)"
         id="path39" />
    </clipPath>
    <clipPath
       clipPathUnits="userSpaceOnUse"
       id="clipPath41">
      <path
         d="M 0,595.276 H 841.89 V 0 H 0 Z"
         transform="translate(-593.40671,-187.06561)"
         id="path41" />
    </clipPath>
    <clipPath
       clipPathUnits="userSpaceOnUse"
       id="clipPath43">
      <path
         d="M 0,595.276 H 841.89 V 0 H 0 Z"
         transform="translate(-621.12881,-190.1365)"
         id="path43" />
    </clipPath>
    <clipPath
       clipPathUnits="userSpaceOnUse"
       id="clipPath45">
      <path
         d="M 0,595.276 H 841.89 V 0 H 0 Z"
         transform="translate(-648.26831,-167.6062)"
         id="path45" />
    </clipPath>
    <clipPath
       clipPathUnits="userSpaceOnUse"
       id="clipPath47">
      <path
         d="M 0,595.276 H 841.89 V 0 H 0 Z"
         transform="translate(-348.93011,-167.606)"
         id="path47" />
    </clipPath>
    <clipPath
       clipPathUnits="userSpaceOnUse"
       id="clipPath49">
      <path
         d="M 0,595.276 H 841.89 V 0 H 0 Z"
         transform="translate(-350.41741,-195.87121)"
         id="path49" />
    </clipPath>
  </defs>
  <g
     id="g1">
    <g
       id="layer-MC0">
      <path
         id="path2"
         d="m 0,0 h 22.351 c 0,0 6.972,55.224 -68.985,63.187 -3.787,0.397 -7.607,0.395 -11.396,0.015 -15.818,-1.583 -55.16,-9.249 -65.421,-46.353 -3.174,-11.476 -2.052,-23.77 3.399,-34.357 7.914,-15.372 26.26,-35.632 68.252,-37.886 0.073,-0.004 0.147,-0.005 0.221,-0.004 2.574,0.038 50.644,0.204 51.388,-40.884 0,0 1.246,-28.466 -38.45,-36.332 -10.824,-2.145 -22.024,-1.833 -32.595,1.332 -14.72,4.407 -32.337,15.244 -32.114,41.878 h -22.542 c 0,0 -3.844,-60.367 74.205,-63.997 0,0 40.57,-1.023 61.826,25.858 15.343,19.405 15.62,46.958 0.295,66.377 -10.028,12.708 -28.424,24.404 -62.136,25.825 0,0 -47.636,-0.383 -51.648,39.926 0,0 0.365,26.844 33.527,36.462 9.123,2.646 18.713,3.271 28.132,2.043 C -27.216,41.203 -2.084,34.046 0,0"
         style="fill:#3263b7;fill-opacity:1;fill-rule:nonzero;stroke:none"
         transform="matrix(1.3333333,0,0,-1.3333333,837.60467,307.0876)"
         clip-path="url(#clipPath3)" />
      <path
         id="path4"
         d="M 0,0 H -22.351 V 212.335 H 0 Z"
         style="fill:#3263b7;fill-opacity:1;fill-rule:nonzero;stroke:none"
         transform="matrix(1.3333333,0,0,-1.3333333,621.03107,508.59147)"
         clip-path="url(#clipPath5)" />
      <path
         id="path6"
         d="m 0,0 c -62.507,0 -113.157,-48.031 -113.157,-107.313 0,-59.249 50.65,-107.28 113.157,-107.28 23.31,0 44.941,6.684 62.91,18.104 -0.47,0.604 -0.772,1.209 -0.974,1.78 -0.907,0.202 -1.713,0.672 -2.318,1.31 -1.343,0.47 -2.418,1.478 -2.854,2.821 -0.303,0.941 -0.235,1.949 0.1,2.822 -0.033,0.101 -0.033,0.168 -0.066,0.235 -0.135,0.033 -0.303,0.101 -0.471,0.168 -0.135,0.034 -0.269,0.067 -0.336,0.067 -2.15,0.47 -3.09,1.679 -3.896,3.325 -0.101,0.235 -0.235,0.571 -0.403,0.974 -0.168,-0.033 -0.336,-0.033 -0.471,-0.033 -0.57,0 -2.384,0.168 -3.492,2.116 -0.303,0.168 -0.605,0.403 -0.874,0.705 C 33.185,-188.092 17.164,-192.66 0,-192.66 c -49.71,0 -89.982,38.223 -89.982,85.347 0,47.157 40.272,85.347 89.982,85.347 49.71,0 89.982,-38.19 89.982,-85.347 0,-16.492 -4.937,-31.875 -13.469,-44.941 0.236,-0.235 0.404,-0.47 0.571,-0.739 0.135,-0.168 0.235,-0.369 0.336,-0.571 0.336,-0.268 0.605,-0.604 0.84,-0.94 l 0.134,-0.067 c 0.638,-0.235 1.444,-0.571 2.116,-1.142 h 0.067 l 0.773,-0.907 c 1.511,-0.706 2.284,-1.881 2.486,-3.124 1.545,-0.47 2.619,-1.746 2.821,-3.325 1.176,-0.638 2.183,-1.881 2.385,-3.997 0.504,-0.235 0.839,-0.47 0.974,-0.571 0.47,-0.369 1.377,-1.209 1.578,-2.654 13.57,17.701 21.564,39.433 21.564,62.978 C 113.158,-48.031 62.507,0 0,0"
         style="fill:#3263b7;fill-opacity:1;fill-rule:nonzero;stroke:none"
         transform="matrix(1.3333333,0,0,-1.3333333,397.66027,222.44747)"
         clip-path="url(#clipPath7)" />
      <path
         id="path8"
         d="m 0,0 c -0.717,-0.43 -0.787,-0.25 -0.787,0 0,0.25 0.537,1.111 1.074,1.398 0,0 0.393,0.25 0.574,-0.287 C 1.037,0.574 0.717,0.43 0,0 m -1.865,0.394 c -0.213,0.18 -0.787,0.68 -1.037,1.061 -0.25,0.381 -0.894,1.087 -1.398,1.591 -0.5,0.5 -0.824,1.037 -0.824,1.037 0,0 1.615,0.037 2.259,0.18 0.643,0.144 0.68,0 1.717,-0.106 C -0.107,4.046 -0.537,4.189 -0.25,4.37 0.037,4.55 0.537,5.374 0.906,5.337 1.279,5.3 1,5.087 0.607,4.263 0.213,3.439 0.25,3.689 0.213,2.829 0.18,1.972 -0.037,2.259 -0.287,1.828 -0.537,1.398 -0.717,1.504 -0.967,1.004 -1.217,0.5 -1.648,0.217 -1.865,0.394 m -3.69,4.73 h -0.537 c -0.143,0.07 -0.426,0.406 -0.856,0.849 -0.431,0.438 -0.824,0.656 -0.824,0.869 0,0.213 0.032,0.5 0.463,0.611 0.43,0.106 1.578,0 1.578,0 0,0 1.861,0.131 2.329,0.045 0.463,-0.082 0.93,-0.369 0.143,-0.587 C -4.05,6.698 -4.157,6.809 -4.444,6.325 -4.731,5.837 -5.124,5.337 -5.124,5.337 Z m -3.291,2.611 c -0.361,0.287 -0.431,0.541 -0.718,0.755 -0.287,0.213 -0.504,0.824 -0.61,0.967 0,0 0.791,-0.107 1.074,-0.287 0.286,-0.18 0.504,0.07 0.86,-0.037 0.357,-0.106 0.5,-0.574 0.611,-0.742 C -7.522,8.223 -7.596,7.953 -8.276,7.526 -8.957,7.1 -8.49,7.453 -8.846,7.735 m -1.935,3.8 c -0.181,-0.18 0,0.464 -0.181,-0.18 -0.18,-0.644 -0.5,-0.717 -0.5,-0.717 -0.11,0.143 -0.037,0.143 -0.61,0.754 -0.574,0.607 -0.894,0.393 -0.501,0.787 0.394,0.394 0.718,-0.143 0.931,-0.18 0.213,-0.033 0.25,-0.824 0.644,0.323 0.393,1.148 0,1.005 0.393,1.575 0.398,0.574 0.717,0.393 1.361,0.254 0.648,-0.144 1.078,0 1.148,-0.431 0.074,-0.43 -0.07,-0.68 -0.574,-0.791 -0.5,-0.106 -1.037,-0.463 -1.218,-0.68 -0.18,-0.213 -0.717,-0.537 -0.893,-0.714 m -2.722,1.394 c -0.254,0.181 -0.717,-0.106 -0.791,0.574 -0.07,0.681 -0.394,1.004 0,1.218 0.397,0.217 1.041,0.147 1.111,-0.427 0.073,-0.574 -0.214,-0.611 -0.177,-0.791 0.033,-0.176 -0.143,-0.574 -0.143,-0.574 M -27.211,29.08 c -0.094,-0.561 -0.193,-0.389 -0.812,-0.582 -0.623,-0.188 -0.947,1.255 0,1.197 0.763,-0.049 0.906,-0.049 0.812,-0.615 m 41.358,-44.993 c -0.525,-0.144 -0.812,0.282 -1.337,0.713 -0.524,0.43 -0.955,1.148 -0.955,1.148 l -6.35,6.657 -4.3,4.374 c 0,0 -0.906,1.385 -0.861,1.816 0.049,0.43 0.287,0.955 0.767,0.861 0.475,-0.099 0.955,-0.767 0.906,-1.242 -0.049,-0.48 0.812,-0.91 1.91,-1.099 1.099,-0.193 0.574,0.43 1.148,0.332 0.57,-0.094 1,-0.287 2.004,-0.287 1.005,0 1.718,0.43 1.911,-0.143 C 9.182,-3.353 8.609,-3.64 8.559,-4.308 8.514,-4.977 7.604,-4.788 6.985,-5.887 6.362,-6.985 7.461,-7.129 7.797,-7.366 c 0.332,-0.238 0.43,1.147 0.955,1.192 0.525,0.05 1.336,-0.143 1.529,0 0.189,0.144 0.525,1.099 0.525,1.099 0,0 0.43,1.099 0.324,1.386 -0.103,0.287 -1.136,0.623 -1.042,0.955 0.095,0.336 0.669,0.623 1.005,1.148 0.332,0.524 -1.579,1.811 -1.579,1.811 0,0 -1.049,1.005 -1.91,1.341 -0.861,0.332 -2.099,1.718 -2.099,1.718 0,0 -0.815,0.905 -1.434,1.672 C 3.452,5.719 2.878,5.53 2.706,5.719 2.533,5.911 2.734,6.674 2.64,7.248 2.542,7.821 2.829,8.203 2.64,8.346 2.447,8.49 1.111,9.014 0.631,9.539 c -0.475,0.525 -0.475,0.955 -0.475,1.673 0,0.717 -0.144,1.434 -0.668,1.479 -0.529,0.05 -1.386,-0.237 -1.292,0 0.095,0.238 0.619,1.193 -0.447,1.337 -1.065,0.143 -1.176,-0.476 -1.75,-0.857 -0.574,-0.385 -1.386,-1.959 -2.673,-1.959 -1.291,0 0,0.762 0.189,1.192 0.193,0.431 2.39,1.911 3.107,2.296 0.713,0.381 1.48,0.812 0.955,0.955 -0.529,0.14 -0.955,-0.385 -2.152,0 -1.193,0.381 -0.762,1.669 -0.475,2.591 0.287,0.922 -0.718,0.656 -1.099,1.131 -0.381,0.48 -0.849,-0.619 -0.849,-0.619 0,0 -0.967,-0.668 -1.635,-0.479 -0.668,0.192 0.049,0.524 0.762,0.955 0.718,0.43 1.005,0.91 0.812,1.148 -0.189,0.237 -0.906,0.475 -1.48,0.717 -0.574,0.238 -1.242,0.287 -1.336,0.906 -0.095,0.619 -0.574,0.861 -0.955,0.48 -0.382,-0.386 -1.05,-0.673 -1.529,-1.484 -0.476,-0.812 -0.525,0.049 -0.382,0.479 0.144,0.431 0.906,0.812 1.435,1.574 0.525,0.767 0.094,0.718 0,1.054 -0.098,0.332 -1.578,1.336 -2.152,1.525 -0.574,0.193 -0.857,0.193 -1.312,0.574 -0.451,0.381 0.213,0.668 0,1.148 -0.213,0.475 -1.266,-0.144 -1.791,-0.431 -0.525,-0.287 -0.812,-0.619 -2.103,-1.148 -1.287,-0.524 -0.094,0.431 0.43,1.099 0.525,0.668 0.574,1.004 1.48,1.529 0.91,0.525 1.197,1.004 1.628,1.242 0.426,0.238 0.524,0.623 0,1.861 -0.529,1.242 -0.337,0.287 -2.054,0.242 -1.722,-0.049 -0.529,0.189 -0.955,0.857 -0.431,0.672 -0.718,0.049 -1.386,-0.525 -0.668,-0.574 -0.385,0.049 -0.287,0.767 0.094,0.713 -0.336,0.332 -1.324,0.287 -0.984,-0.05 -0.205,0.381 -0.061,0.762 0.143,0.381 0,0.48 0,1.05 0,0.573 -0.287,0.86 -0.574,0.479 -0.287,-0.381 -0.718,-0.955 -1.287,-1.049 -0.574,-0.099 -0.05,0.475 0.094,1.193 0.143,0.717 0.475,0.619 0.668,0.717 0.193,0.094 0.336,1 0,1.48 -0.336,0.475 -0.525,-0.099 -0.906,-0.099 -0.385,0 -0.672,0.337 -0.955,0.386 -0.287,0.045 -1.435,-2.341 -1.435,-2.341 0,0 -1.148,-0.049 -0.861,0.525 0.287,0.574 1.099,1.098 1.292,1.242 0.192,0.143 0.049,1.717 -0.287,1.955 -0.337,0.242 -0.337,-1.049 -1.099,-0.955 -0.762,0.098 -0.381,0.48 -0.525,0.767 -0.143,0.287 -1.291,1.242 -1.291,1.242 0,0 -1.431,0.574 -0.955,1.143 0.479,0.574 1.053,1.341 0,1.816 -1.05,0.48 -1.812,-0.094 -3.247,0 -1.43,0.095 -1.049,1.243 -1.049,3.608 0,2.365 -1.435,1.742 -1.435,1.742 -8.977,-6.973 -22.161,-23.403 -22.161,-23.403 0,0 0.242,-0.188 1.292,-0.574 1.049,-0.381 0.619,-1.336 0.619,-1.336 0,0 0.479,-0.381 1.053,-0.332 0.574,0.045 0.812,0.094 1.099,-0.287 0.287,-0.381 0.43,-0.525 1.479,-0.668 1.05,-0.144 0.812,0.619 1.193,-0.144 0.382,-0.766 0.525,-0.766 -0.094,-1.816 -0.623,-1.049 -0.381,0.049 -0.861,-0.524 -0.475,-0.574 -0.188,-0.382 0.623,-0.574 0.812,-0.193 0.714,-0.763 0.857,-1.435 0.144,-0.668 1.004,-0.668 1.291,-0.668 0.287,0 0.861,0.192 1.099,-0.525 0.238,-0.717 -0.238,-0.668 -0.525,-1.049 -0.287,-0.382 -0.811,-1.099 0.238,-0.861 1.05,0.237 0.619,0.143 1.718,0.098 1.098,-0.049 0.336,-0.242 -0.045,-0.717 -0.382,-0.48 0.237,-0.861 0.573,-1.054 0.333,-0.188 0.619,0.144 0.956,0 0.332,-0.143 0.811,-0.713 0.668,-1.43 -0.144,-0.718 0.381,-1.005 0.762,-0.861 0.382,0.143 0.574,0.717 0.955,0.43 0.382,-0.287 0.193,-0.861 -0.049,-0.955 -0.238,-0.094 -0.857,-0.238 -1.287,-0.763 -0.43,-0.528 0.763,-0.623 1.48,-0.623 0.717,0 1.574,0.238 2.96,0.144 1.385,-0.094 0.91,-0.431 0.955,-1.386 0.049,-0.955 0.623,-0.475 0.717,-0.955 0.094,-0.475 0.336,-1.098 -0.188,-1.623 -0.529,-0.525 -0.287,-0.476 -0.386,-1.529 -0.094,-1.05 0.242,0 1.673,-0.57 1.434,-0.574 0.479,-0.816 0.762,-1.242 0.287,-0.431 1.005,-0.049 1.386,-1.197 0.385,-1.144 0.574,-0.189 0.811,0.098 0.242,0.287 0.767,0.57 1.529,0.619 0.767,0.049 0.956,0.382 0.91,-0.574 -0.049,-0.955 0.333,-0.856 0.857,-0.381 0.525,0.48 1.48,0.336 1.341,-0.188 -0.144,-0.529 -0.96,-0.624 -1.197,-0.91 -0.238,-0.287 -0.238,-0.906 0.43,-2.341 0.668,-1.431 0.767,-1 2.005,-1.431 1.242,-0.43 1.053,-0.381 1.865,-0.717 0.812,-0.336 0.668,-1.05 0.668,-1.05 0,0 0.574,-1.578 0.763,-1.34 0.192,0.242 0.524,2.009 2.435,2.054 1.91,0.049 -0.189,-0.763 -0.763,-1.099 -0.574,-0.332 -0.619,-0.189 -0.717,-1.525 -0.095,-1.34 0,0 0.91,-0.287 0.906,-0.287 0.094,-0.43 -0.431,-0.668 -0.524,-0.242 -1.193,-0.193 -1.721,-0.574 -0.525,-0.381 0.049,-0.955 0.86,-0.861 0.812,0.095 0.812,-0.143 0.861,-0.717 0.045,-0.57 1.193,-0.619 1.242,-0.144 0.045,0.48 0.144,0.91 1.48,0.623 1.337,-0.286 0,-0.43 0.095,-1.291 0.094,-0.857 0.286,-1.385 0.286,-1.385 0,0 -0.049,-0.956 0.956,-1.911 1.004,-0.955 0.192,1.197 0.717,1.628 0.525,0.426 1.574,0.094 1.574,-0.767 0,-0.861 -0.713,0.287 -1,-0.717 -0.287,-1 -0.385,-1.718 -0.193,-1.669 0.193,0.046 0.763,1.001 1.386,1.05 0.619,0.049 0.811,-0.431 0.332,-1.004 -0.476,-0.574 -0.476,-1.001 0.43,-1.001 0.91,0 0.099,-0.43 0.767,-1.053 0.668,-0.619 0.906,-0.525 1.668,-1.193 0.767,-0.668 0.099,-0.287 0.144,-1.816 0.049,-1.525 0.479,0.287 1.148,0.385 0.668,0.095 1.049,-0.717 0.762,-1.197 -0.283,-0.475 -0.476,-1.098 -0.045,-0.955 0.43,0.144 0.287,0.381 1.242,0.049 0.955,-0.336 0.713,-0.623 0.43,-1.385 -0.287,-0.763 0.525,-0.906 0.956,-0.861 0.426,0.049 1.336,0.385 1.287,-0.045 -0.045,-0.431 -0.382,-1.099 -0.189,-1.337 0.189,-0.241 0.857,0.189 2.148,0.045 1.287,-0.143 1.287,-0.188 0.763,-0.573 -0.525,-0.382 -0.574,-1.431 -0.431,-1.669 0.144,-0.242 0.668,0.57 1.005,0.619 0.336,0.049 0.237,-0.525 0.094,-1.098 -0.144,-0.574 -0.332,-1.337 -0.045,-1.48 0.287,-0.144 2.673,0.143 2.673,0.143 0,0 1.721,0.094 1.529,-0.623 -0.193,-0.713 -0.718,-0.713 -1.193,-1.287 -0.48,-0.574 -0.431,-0.574 -0.099,-1.816 0.336,-1.242 1.435,-1.673 1.435,-1.673 9.502,9.65 14.471,18.865 14.471,18.865 v 1.816 c 0,0.48 -0.337,0.48 -0.861,0.337"
         style="fill:#55c5f3;fill-opacity:1;fill-rule:nonzero;stroke:none"
         transform="matrix(1.3333333,0,0,-1.3333333,511.14427,461.1548)"
         clip-path="url(#clipPath9)" />
      <path
         id="path10"
         d="M 0,0 C -0.036,0.537 -0.143,1.003 -0.824,1.075 -1.504,1.146 -1.755,0.43 -2.292,1.11 -2.83,1.791 -2.901,1.325 -2.794,2.042 c 0.108,0.716 0.716,0.859 -0.143,1.146 -0.86,0.286 -1.003,0.179 -1.003,1.003 0,0.824 0.143,0.824 -0.143,1.003 C -4.37,5.373 -4.621,5.695 -4.621,5.695 -5.265,5.731 -5.373,5.158 -5.767,5.158 -6.161,5.158 -7.2,5.015 -7.2,5.015 c 0,0 -0.644,-0.466 -0.967,-0.609 C -8.489,4.262 -8.955,4.155 -9.241,3.94 -9.528,3.725 -10.28,3.403 -9.528,3.403 c 0.752,0 0.143,-0.323 1.29,0 1.146,0.322 0.501,-0.179 0.215,-0.537 -0.287,-0.359 -0.574,-0.287 -0.323,-0.753 0.251,-0.465 0.717,-0.573 0.896,0 0.179,0.573 0.644,0.896 0.644,0.896 0,0 0.824,0.68 1.003,0.215 0.179,-0.466 -0.036,-0.609 0.251,-0.645 0.287,-0.036 0.931,-0.107 0.931,-0.107 0,0 0.359,-0.538 0.287,-1.003 -0.072,-0.466 0.788,-0.753 1.039,-0.788 0.25,-0.036 0.501,0.143 0,-0.323 -0.502,-0.465 -1.218,-0.967 -0.573,-0.967 0.644,0 1.361,0.466 1.361,0.466 0,0 1.003,0 1.325,-0.144 0.322,-0.143 0.394,-0.895 0.394,-0.895 0,0 0.824,0.645 0.788,1.182"
         style="fill:#55c5f3;fill-opacity:1;fill-rule:nonzero;stroke:none"
         transform="matrix(1.3333333,0,0,-1.3333333,535.93,476.24613)"
         clip-path="url(#clipPath11)" />
      <path
         id="path12"
         d="m 0,0 c -2.014,0 -3.713,1.263 -4.228,3.142 -0.354,1.266 -0.092,2.624 0.725,3.704 1.099,1.449 2.857,1.964 4.031,1.964 h 2.68 L 4.356,6.186 C 4.877,4.713 4.684,3.175 3.821,1.955 2.959,0.731 1.529,0 0,0"
         style="fill:#55c5f3;fill-opacity:1;fill-rule:nonzero;stroke:none"
         transform="matrix(1.3333333,0,0,-1.3333333,535.7632,484.07)"
         clip-path="url(#clipPath13)" />
      <path
         id="path14"
         d="M 0,0 C -0.107,0.302 -1.504,-0.107 -1.325,-0.752 -1.146,-1.397 0.394,-1.11 0,0"
         style="fill:#55c5f3;fill-opacity:1;fill-rule:nonzero;stroke:none"
         transform="matrix(1.3333333,0,0,-1.3333333,536.78973,477.5356)"
         clip-path="url(#clipPath15)" />
      <path
         id="path16"
         d="M 0,0 V 11.47 L -8.479,25.043 -5.05,25.039 1.506,14.189 8.013,25.046 11.436,25.043 2.975,11.471 V 0 Z"
         style="fill:#55c5f3;fill-opacity:1;fill-rule:nonzero;stroke:none"
         transform="matrix(1.3333333,0,0,-1.3333333,258.0888,570.22667)"
         clip-path="url(#clipPath17)" />
      <path
         id="path18"
         d="m 0,0 -3.982,-9.22 h 7.958 z m -0.004,6.58 11.386,-26.039 -3.228,0.001 -3.251,7.691 h -9.772 l -3.243,-7.698 -3.242,0.006 z"
         style="fill:#55c5f3;fill-opacity:1;fill-rule:nonzero;stroke:none"
         transform="matrix(1.3333333,0,0,-1.3333333,298.78693,544.2808)"
         clip-path="url(#clipPath19)" />
      <path
         id="path20"
         d="m 0,0 h 1.504 c 2.553,0 4.271,0.299 5.154,0.897 0.883,0.599 1.325,1.644 1.325,3.137 0,1.584 -0.45,2.704 -1.35,3.359 C 5.732,8.049 4.022,8.376 1.504,8.376 H 0 Z m 0,-2.701 v -11.248 h -2.906 v 25.043 h 5.248 c 0.911,0 1.706,-0.023 2.385,-0.068 C 5.404,10.98 5.954,10.909 6.376,10.812 6.797,10.715 7.202,10.587 7.59,10.427 7.977,10.268 8.33,10.074 8.649,9.846 9.436,9.288 10.057,8.507 10.513,7.504 10.741,6.992 10.912,6.47 11.026,5.94 11.139,5.41 11.197,4.832 11.197,4.205 11.197,2.997 10.972,1.9 10.522,0.914 10.071,-0.071 9.447,-0.855 8.649,-1.436 8.023,-1.88 7.271,-2.203 6.393,-2.402 5.515,-2.601 4.165,-2.701 2.342,-2.701 H 1.504 Z"
         style="fill:#55c5f3;fill-opacity:1;fill-rule:nonzero;stroke:none"
         transform="matrix(1.3333333,0,0,-1.3333333,336.878,551.62787)"
         clip-path="url(#clipPath21)" />
      <path
         id="path22"
         d="M 0,0 V 25.043 H 2.975 V 0 Z"
         style="fill:#55c5f3;fill-opacity:1;fill-rule:nonzero;stroke:none"
         transform="matrix(1.3333333,0,0,-1.3333333,370.6592,570.22667)"
         clip-path="url(#clipPath23)" />
      <path
         id="path24"
         d="M 0,0 V 25.043 H 2.94 V 13.923 L 13.448,25.048 17.004,25.043 6.274,13.778 18.069,0 14.222,-0.001 2.94,13.492 V 0 Z"
         style="fill:#55c5f3;fill-opacity:1;fill-rule:nonzero;stroke:none"
         transform="matrix(1.3333333,0,0,-1.3333333,422.5808,570.22667)"
         clip-path="url(#clipPath25)" />
      <path
         id="path26"
         d="M 0,0 -7.778,18.003 -10.921,1.002 h -2.908 L -8.752,27.024 0,6.321 8.752,27.024 13.829,1.002 H 10.92 L 7.742,18.006 Z"
         style="fill:#55c5f3;fill-opacity:1;fill-rule:nonzero;stroke:none"
         transform="matrix(1.3333333,0,0,-1.3333333,506.72613,571.54)"
         clip-path="url(#clipPath27)" />
      <path
         id="path28"
         d="M 0,0 V 11.47 L -8.479,25.043 -5.05,25.039 1.506,14.189 8.013,25.046 11.436,25.043 2.975,11.471 V 0 Z"
         style="fill:#55c5f3;fill-opacity:1;fill-rule:nonzero;stroke:none"
         transform="matrix(1.3333333,0,0,-1.3333333,553.79573,570.22653)"
         clip-path="url(#clipPath29)" />
      <path
         id="path30"
         d="m 0,0 -3.982,-9.22 h 7.958 z m -0.004,6.58 11.386,-26.039 -3.228,0.001 -3.251,7.691 h -9.772 l -3.243,-7.698 -3.242,0.006 z"
         style="fill:#55c5f3;fill-opacity:1;fill-rule:nonzero;stroke:none"
         transform="matrix(1.3333333,0,0,-1.3333333,596.18613,544.28067)"
         clip-path="url(#clipPath31)" />
      <path
         id="path32"
         d="m 0,0 c 1.607,-0.673 2.829,-1.593 3.667,-2.761 0.838,-1.168 1.256,-2.533 1.256,-4.094 0,-2.28 -0.732,-4.128 -2.196,-5.547 -1.465,-1.419 -3.405,-2.128 -5.821,-2.128 -1.96,0 -3.607,0.501 -4.94,1.504 -1.334,1.003 -2.24,2.439 -2.718,4.308 l 2.7,1.333 c 0.354,-1.493 0.952,-2.635 1.795,-3.427 0.844,-0.793 1.898,-1.188 3.163,-1.188 1.47,0 2.673,0.427 3.607,1.282 0.934,0.855 1.402,1.977 1.402,3.367 0,1.094 -0.323,2.06 -0.966,2.898 -0.644,0.838 -1.615,1.541 -2.915,2.111 l -3.042,1.299 c -1.653,0.684 -2.889,1.578 -3.71,2.684 -0.821,1.106 -1.231,2.416 -1.231,3.932 0,1.789 0.661,3.262 1.983,4.419 1.322,1.156 3.009,1.735 5.06,1.735 1.527,0 2.829,-0.317 3.906,-0.949 C 2.077,10.146 2.935,9.202 3.573,7.949 L 1.111,6.376 C 0.553,7.345 -0.071,8.066 -0.761,8.539 -1.45,9.011 -2.239,9.248 -3.128,9.248 -4.222,9.248 -5.131,8.906 -5.855,8.223 -6.578,7.539 -6.94,6.667 -6.94,5.607 c 0,-0.889 0.27,-1.656 0.812,-2.299 0.541,-0.644 1.393,-1.223 2.556,-1.735 z"
         style="fill:#55c5f3;fill-opacity:1;fill-rule:nonzero;stroke:none"
         transform="matrix(1.3333333,0,0,-1.3333333,642.55053,551.67347)"
         clip-path="url(#clipPath33)" />
      <path
         id="path34"
         d="m 0,0 -3.982,-9.22 h 7.958 z m -0.004,6.58 11.386,-26.039 -3.228,0.001 -3.251,7.691 h -9.772 l -3.243,-7.698 -3.242,0.006 z"
         style="fill:#55c5f3;fill-opacity:1;fill-rule:nonzero;stroke:none"
         transform="matrix(1.3333333,0,0,-1.3333333,681.68787,544.28053)"
         clip-path="url(#clipPath35)" />
      <path
         id="path36"
         d="M 0,0 V 25.043 H 2.975 V 2.837 h 9.453 l 0,-2.837 z"
         style="fill:#55c5f3;fill-opacity:1;fill-rule:nonzero;stroke:none"
         transform="matrix(1.3333333,0,0,-1.3333333,714.77493,570.2264)"
         clip-path="url(#clipPath37)" />
      <path
         id="path38"
         d="M 0,0 V 25.043 H 2.975 V 2.837 h 9.453 l 0,-2.837 z"
         style="fill:#55c5f3;fill-opacity:1;fill-rule:nonzero;stroke:none"
         transform="matrix(1.3333333,0,0,-1.3333333,747.7132,570.2264)"
         clip-path="url(#clipPath39)" />
      <path
         id="path40"
         d="m 0,0 -3.982,-9.22 h 7.958 z m -0.004,6.58 11.386,-26.039 -3.228,0.001 -3.251,7.691 h -9.772 l -3.243,-7.698 -3.242,0.006 z"
         style="fill:#55c5f3;fill-opacity:1;fill-rule:nonzero;stroke:none"
         transform="matrix(1.3333333,0,0,-1.3333333,791.20893,544.28053)"
         clip-path="url(#clipPath41)" />
      <path
         id="path42"
         d="m 0,0 v -8.376 h 2.273 c 2.337,0 3.895,0.299 4.676,0.897 0.78,0.598 1.171,1.644 1.171,3.137 0,1.607 -0.405,2.732 -1.214,3.376 C 6.097,-0.322 4.553,0 2.273,0 Z M -2.906,-22.53 V 2.513 h 5.88 c 1.71,0 2.935,-0.097 3.676,-0.291 0.797,-0.17 1.487,-0.49 2.068,-0.957 0.729,-0.57 1.302,-1.342 1.718,-2.316 0.416,-0.974 0.624,-2.06 0.624,-3.257 0,-2.051 -0.57,-3.61 -1.709,-4.675 -1.14,-1.066 -2.821,-1.599 -5.043,-1.599 H 3.778 L 13.333,-22.53 9.564,-22.524 0.428,-10.581 0,-10.582 V -22.53 Z"
         style="fill:#55c5f3;fill-opacity:1;fill-rule:nonzero;stroke:none"
         transform="matrix(1.3333333,0,0,-1.3333333,828.17173,540.186)"
         clip-path="url(#clipPath43)" />
      <path
         id="path44"
         d="M 0,0 V 25.043 H 2.975 V 0 Z"
         style="fill:#55c5f3;fill-opacity:1;fill-rule:nonzero;stroke:none"
         transform="matrix(1.3333333,0,0,-1.3333333,864.35773,570.2264)"
         clip-path="url(#clipPath45)" />
      <path
         id="path46"
         d="M 0,0 H 2.975 V 25.043 H 0 Z"
         style="fill:#55c5f3;fill-opacity:1;fill-rule:nonzero;stroke:none"
         transform="matrix(1.3333333,0,0,-1.3333333,465.24013,570.22667)"
         clip-path="url(#clipPath47)" />
      <path
         id="path48"
         d="M 0,0 C 1.041,0 1.886,0.844 1.886,1.886 1.886,2.927 1.041,3.771 0,3.771 -1.041,3.771 -1.885,2.927 -1.885,1.886 -1.885,0.844 -1.041,0 0,0"
         style="fill:#55c5f3;fill-opacity:1;fill-rule:nonzero;stroke:none"
         transform="matrix(1.3333333,0,0,-1.3333333,467.2232,532.53973)"
         clip-path="url(#clipPath49)" />
    </g>
  </g>
</svg>
